<?xml version="1.0" encoding="utf-8"?>
<!-- Generator: Adobe Illustrator 16.0.0, SVG Export Plug-In . SVG Version: 6.00 Build 0)  -->
<!DOCTYPE svg PUBLIC "-//W3C//DTD SVG 1.1//EN" "http://www.w3.org/Graphics/SVG/1.1/DTD/svg11.dtd">
<svg version="1.1" id="Layer_1" xmlns="http://www.w3.org/2000/svg" xmlns:xlink="http://www.w3.org/1999/xlink" x="0px" y="0px"
	 width="130px" height="80px" viewBox="0 0 130 80" enable-background="new 0 0 130 80" xml:space="preserve">
<g>
	<path d="M57.285,59.938V35.878l-9.354,24.059h-5.649l-9.354-24.059v24.059H20.248V19.919h17.514l7.345,19.199l7.345-19.199h17.514
		v40.019H57.285z"/>
</g>
<rect x="6.063" y="5.938" fill="none" stroke="#000000" stroke-width="8" stroke-miterlimit="5" width="118" height="68"/>
<g>
	<path fill="#FC60A8" d="M85.807,59.938l3.364-9.479h-5.015l-3.301,9.479h-8.062l3.364-9.479h-5.459l2.222-6.54h5.586l2.729-7.919
		h-5.522l2.158-6.48h5.713l3.364-9.6h8.062l-3.364,9.6h4.951l3.364-9.6h8.062l-3.428,9.6h5.586l-2.095,6.48h-5.776l-2.793,7.919
		h5.776l-2.158,6.54h-5.967l-3.301,9.479H85.807z M94.249,35.999h-4.951l-2.729,7.919h4.888L94.249,35.999z"/>
</g>
</svg>
